<?xml version="1.0" standalone="no"?>
<!DOCTYPE svg PUBLIC "-//W3C//DTD SVG 20010904//EN"
 "http://www.w3.org/TR/2001/REC-SVG-20010904/DTD/svg10.dtd">
<svg version="1.0" xmlns="http://www.w3.org/2000/svg"
 width="6667.000000pt" height="5163.000000pt" viewBox="0 0 6667.000000 5163.000000"
 preserveAspectRatio="xMidYMid meet">
<metadata>
Created by potrace 1.16, written by Peter Selinger 2001-2019
</metadata>
<g transform="translate(0.000000,5163.000000) scale(0.100000,-0.100000)"
fill="#000000" stroke="none">
<path d="M42077 50614 c-1 -1 -148 -4 -327 -8 -179 -3 -338 -8 -355 -10 -16
-3 -82 -7 -145 -11 -734 -39 -1583 -170 -2335 -360 -630 -160 -1183 -352
-1764 -615 -2153 -972 -3965 -2412 -5342 -4245 -1303 -1735 -2173 -3786 -2520
-5940 -31 -195 -31 -202 -16 -256 22 -75 66 -132 129 -168 104 -60 187 -54
310 21 189 115 347 161 553 160 230 -1 444 -87 601 -241 156 -151 249 -339
275 -554 28 -232 -53 -505 -203 -679 -13 -15 -723 -517 -1578 -1115 -855 -599
-1699 -1190 -1874 -1313 -348 -244 -426 -312 -520 -453 -140 -212 -206 -427
-206 -669 0 -368 187 -688 519 -888 309 -185 702 -197 1032 -30 42 21 294 191
560 377 266 187 513 359 549 384 36 25 434 304 885 620 451 316 849 595 885
620 36 25 389 273 785 550 861 604 1578 1104 2205 1539 52 36 385 267 738 514
699 486 759 523 922 556 379 78 750 -74 958 -393 95 -146 143 -308 143 -488 0
-264 -102 -501 -290 -671 -46 -42 -939 -668 -1765 -1239 -64 -44 -524 -363
-971 -674 -33 -23 -247 -171 -475 -330 -228 -158 -442 -307 -475 -330 -33 -23
-247 -171 -475 -330 -228 -158 -442 -307 -475 -330 -33 -23 -247 -171 -475
-330 -228 -158 -442 -307 -475 -330 -33 -23 -247 -171 -475 -330 -228 -158
-442 -307 -475 -330 -33 -23 -247 -171 -475 -330 -228 -158 -442 -307 -475
-330 -51 -35 -768 -533 -950 -660 -168 -116 -1303 -905 -1670 -1160 -997 -693
-1510 -1049 -2650 -1840 -1058 -735 -1221 -851 -1301 -930 -102 -101 -157
-178 -214 -298 -248 -521 -45 -1142 461 -1411 297 -158 628 -173 939 -42 86
37 207 115 655 428 143 99 375 261 515 358 140 97 449 311 685 475 237 164
538 374 670 465 132 92 373 259 535 372 162 112 464 321 670 465 206 143 569
394 805 558 237 164 567 394 735 510 168 116 467 324 665 462 198 137 477 330
620 430 143 99 422 292 620 430 198 137 477 330 620 430 143 99 451 312 685
475 1611 1117 1830 1267 1899 1303 138 69 256 96 421 96 422 -1 786 -297 876
-713 25 -116 21 -292 -10 -410 -44 -172 -120 -301 -249 -424 -73 -70 -512
-381 -1572 -1115 -615 -426 -3230 -2250 -3260 -2274 -406 -329 -507 -904 -239
-1357 67 -113 238 -285 352 -352 306 -182 681 -199 997 -46 44 21 193 117 330
212 138 96 390 272 560 391 171 118 342 238 380 265 39 27 237 165 440 307
204 142 510 356 680 475 171 119 398 278 505 352 1015 708 1526 1064 1585
1106 39 27 237 165 440 307 204 142 487 340 630 440 571 399 793 554 866 603
195 132 408 188 624 162 227 -27 410 -120 567 -289 279 -300 317 -754 93
-1103 -99 -153 -67 -130 -2265 -1665 -6042 -4219 -5719 -3992 -5811 -4083
-100 -100 -155 -178 -214 -304 -248 -527 -34 -1148 488 -1414 86 -44 210 -86
306 -102 82 -15 266 -14 356 0 95 15 235 63 324 111 40 22 432 290 870 596
438 306 819 573 846 592 28 19 385 269 795 556 410 287 774 542 810 566 141
99 1688 1182 2070 1449 231 162 445 304 498 331 228 116 520 125 756 22 159
-69 331 -219 416 -361 214 -360 158 -819 -135 -1106 -39 -39 -394 -293 -955
-686 -491 -344 -921 -651 -956 -683 -174 -159 -307 -410 -350 -662 -24 -136
-15 -352 20 -467 101 -339 360 -601 701 -711 232 -75 489 -67 722 22 108 42
174 84 683 442 1303 913 2270 1591 2345 1643 l85 58 2822 -1143 c1553 -628
3014 -1220 3248 -1314 234 -95 556 -225 715 -289 160 -65 1174 -476 2255 -913
2288 -926 2370 -959 2392 -981 13 -14 345 -489 849 -1217 31 -44 159 -228 285
-410 127 -181 255 -366 285 -410 31 -44 123 -177 205 -295 83 -118 175 -251
205 -295 31 -44 395 -568 810 -1165 415 -597 780 -1121 810 -1165 31 -44 123
-177 205 -295 83 -118 175 -251 205 -295 31 -44 284 -408 564 -810 279 -401
623 -896 764 -1100 206 -298 274 -388 346 -460 244 -245 553 -365 908 -352
284 9 448 72 759 290 73 51 317 221 542 377 230 160 441 314 482 353 186 173
319 421 365 677 20 109 17 336 -5 440 -46 217 -103 329 -326 650 -212 304
-386 554 -585 840 -88 127 -219 315 -290 418 -72 103 -250 358 -395 567 -252
363 -439 632 -691 995 -189 272 -459 660 -518 745 -69 100 -253 364 -426 613
-72 103 -250 358 -395 567 -252 363 -439 632 -691 995 -189 272 -459 660 -518
745 -64 92 -236 339 -426 613 -72 103 -208 297 -301 432 l-171 246 -7 169 c-4
94 -9 204 -11 245 -3 41 -7 136 -10 210 -6 161 -14 320 -20 450 -3 52 -7 163
-10 245 -3 83 -8 177 -10 210 -3 33 -7 141 -10 240 -3 99 -8 194 -10 210 -10
74 -20 481 -20 810 0 382 14 1306 20 1365 2 19 7 247 10 505 3 259 8 490 10
515 2 25 7 252 10 505 3 253 8 489 10 525 2 36 7 263 10 505 3 242 8 474 10
515 2 41 7 269 10 505 3 237 8 468 10 515 2 47 7 279 10 515 3 237 7 468 10
515 2 47 7 274 10 505 3 231 8 463 10 515 2 52 7 284 10 515 3 231 8 463 10
515 2 52 7 280 10 505 3 226 7 457 10 515 2 58 7 285 10 505 3 220 7 456 10
525 3 69 7 296 10 505 3 209 7 441 10 515 3 74 7 302 10 505 3 204 10 429 15
500 32 432 45 1091 30 1485 -42 1062 -201 2104 -471 3080 -522 1882 -1423
3592 -2693 5110 -429 513 -945 1045 -1396 1440 -1419 1241 -3418 2231 -5565
2755 -1150 281 -2357 441 -3420 455 -121 1 -262 3 -313 4 -51 1 -94 1 -95 0z
m-249 -3613 c266 -77 472 -255 588 -505 159 -345 76 -765 -202 -1025 -169
-159 -355 -238 -582 -248 -182 -9 -324 23 -481 108 -183 99 -325 259 -410 462
-67 163 -81 376 -36 553 85 334 352 593 690 668 102 23 334 16 433 -13z m5952
-567 c316 -67 569 -293 674 -602 74 -216 56 -484 -45 -685 -52 -102 -102 -168
-196 -257 -188 -178 -412 -260 -673 -247 -331 18 -616 208 -766 512 -68 138
-87 223 -87 390 -1 112 4 157 21 222 70 270 249 484 506 603 177 83 371 105
566 64z m-9795 -2079 c343 -92 597 -356 671 -698 25 -115 21 -291 -10 -409
-109 -424 -503 -712 -935 -685 -387 25 -701 279 -817 663 -24 79 -27 105 -28
239 0 175 19 265 86 402 117 241 352 430 603 487 39 8 79 18 90 20 43 10 282
-3 340 -19z m6066 -558 c158 -44 286 -117 393 -224 186 -184 277 -398 277
-653 1 -237 -79 -440 -240 -612 -128 -136 -283 -228 -452 -267 -223 -52 -414
-30 -614 69 -207 102 -355 261 -444 475 -47 113 -64 203 -63 345 0 217 62 391
202 566 125 157 333 279 545 320 103 20 288 11 396 -19z m6069 -642 c168 -54
283 -127 401 -253 108 -116 183 -252 226 -412 27 -100 24 -319 -6 -429 -45
-170 -123 -303 -248 -422 -180 -172 -393 -259 -636 -259 -247 0 -458 89 -637
269 -141 141 -217 282 -255 470 -22 107 -16 293 12 396 69 251 241 463 469
578 156 78 247 98 439 93 131 -3 161 -7 235 -31z m-16179 -1540 c232 -35 429
-147 574 -327 414 -519 164 -1275 -480 -1449 -114 -31 -335 -31 -450 0 -164
44 -322 137 -432 255 -76 81 -112 132 -163 234 -67 136 -84 214 -85 387 0 126
4 164 23 235 87 322 341 570 662 649 140 34 213 37 351 16z m6256 -461 c343
-79 616 -360 687 -706 18 -88 21 -247 5 -334 -37 -210 -152 -411 -312 -544
-83 -70 -257 -159 -362 -187 -109 -28 -353 -26 -460 5 -255 73 -457 242 -570
477 -77 160 -90 218 -90 405 0 131 4 167 23 235 100 351 392 607 758 665 77
12 235 4 321 -16z m6048 -599 c180 -32 360 -129 487 -263 82 -87 118 -140 168
-244 65 -137 83 -220 83 -388 0 -168 -18 -251 -83 -388 -48 -100 -83 -153
-156 -231 -273 -295 -711 -374 -1072 -192 -276 139 -456 400 -493 717 -36 300
107 631 349 814 212 159 459 220 717 175z m6042 -585 c279 -66 495 -241 617
-501 68 -146 81 -209 81 -384 0 -172 -14 -240 -75 -371 -118 -254 -329 -432
-602 -506 -70 -19 -107 -23 -233 -22 -133 1 -160 4 -238 27 -327 100 -564 347
-644 674 -25 104 -23 304 5 416 67 268 249 488 504 606 185 87 385 108 585 61z
m-9922 -2061 c319 -39 582 -229 721 -522 59 -125 77 -212 78 -377 1 -164 -17
-254 -78 -386 -148 -319 -471 -526 -821 -526 -237 1 -441 79 -607 232 -138
126 -235 289 -279 465 -27 113 -29 282 -4 400 80 376 401 669 785 715 96 11
107 11 205 -1z m6091 -550 c346 -61 619 -305 720 -646 36 -120 44 -303 19
-424 -35 -173 -111 -323 -229 -446 -295 -311 -744 -380 -1116 -170 -105 59
-269 224 -329 330 -129 230 -158 493 -79 737 100 313 364 548 688 615 80 16
246 19 326 4z m-9984 -2213 c341 -67 607 -311 709 -651 29 -98 37 -312 16
-417 -75 -359 -362 -646 -715 -714 -96 -18 -272 -18 -362 1 -340 71 -614 334
-698 670 -53 210 -32 414 62 610 125 260 360 442 646 500 88 18 252 18 342 1z
m6173 -447 c354 -61 640 -331 727 -686 29 -121 29 -293 -1 -416 -63 -262 -237
-480 -478 -601 -233 -116 -516 -126 -756 -26 -334 139 -557 469 -558 828 -1
125 12 205 50 312 147 417 576 666 1016 589z m5930 -309 c339 -87 586 -339
672 -688 27 -107 22 -303 -10 -423 -59 -225 -196 -412 -393 -538 -148 -96
-304 -141 -484 -142 -253 0 -451 82 -635 266 -149 148 -225 293 -260 492 -42
241 19 493 166 689 145 195 374 331 610 364 88 12 245 3 334 -20z m-9805
-2459 c432 -125 714 -544 661 -981 -48 -388 -340 -705 -723 -784 -88 -18 -247
-21 -334 -5 -291 51 -535 236 -664 502 -65 136 -81 198 -87 353 -6 150 9 248
58 375 98 253 348 476 607 539 42 10 86 21 97 24 11 3 85 3 165 2 111 -3 162
-9 220 -25z m6009 -201 c265 -76 466 -248 587 -504 58 -122 77 -212 77 -371 1
-115 -3 -155 -22 -225 -88 -329 -331 -572 -663 -662 -115 -31 -325 -31 -443 0
-550 148 -835 756 -595 1269 51 110 112 193 196 272 108 102 249 182 384 219
106 29 119 31 270 27 100 -3 154 -9 209 -25z m-3999 -2745 c160 -34 306 -114
430 -235 127 -124 195 -236 247 -405 34 -110 43 -296 18 -416 -58 -287 -237
-518 -500 -645 -138 -67 -224 -87 -385 -87 -107 -1 -153 4 -223 21 -328 82
-578 329 -669 663 -31 117 -31 326 1 444 112 415 490 698 911 680 52 -2 129
-11 170 -20z m9772 -1077 c109 -50 177 -138 196 -253 6 -33 13 -125 16 -205 4
-80 8 -174 11 -210 3 -36 7 -110 10 -165 3 -55 14 -269 25 -475 11 -206 22
-415 25 -465 3 -49 19 -342 35 -650 16 -308 32 -600 35 -650 3 -49 10 -175 15
-280 15 -281 20 -373 30 -550 27 -443 -6 -651 -148 -928 -204 -401 -601 -683
-1061 -757 -182 -30 -440 -9 -627 51 -137 44 -3900 1672 -3943 1706 -46 38
-98 113 -112 166 -16 58 -13 164 5 215 40 112 113 174 277 235 700 261 1475
636 2134 1032 970 582 1773 1206 2611 2027 66 65 131 126 145 136 82 57 220
66 321 20z"/>
<path d="M8520 24053 c-808 -24 -1451 -152 -1925 -383 -231 -112 -395 -230
-556 -398 -251 -261 -394 -589 -429 -987 -7 -83 -10 -1052 -8 -3120 3 -2701 5
-3005 19 -3050 21 -65 51 -124 85 -165 88 -104 301 -160 610 -160 179 0 311
17 431 55 144 45 219 117 265 253 23 67 23 69 26 825 l3 757 2362 1 c1299 0
2371 2 2382 4 11 1 90 6 176 9 746 29 1419 187 1857 436 509 289 785 691 857
1246 14 106 15 297 12 1550 -4 1574 1 1461 -67 1705 -123 446 -426 791 -908
1033 -380 191 -929 322 -1527 366 -82 6 -170 13 -195 16 -45 6 -3292 13 -3470
7z m3486 -1166 c474 -58 716 -135 951 -303 125 -89 207 -185 259 -304 l29 -65
3 -1324 c3 -1473 7 -1365 -65 -1504 -61 -116 -222 -257 -390 -341 -223 -111
-510 -175 -928 -206 -90 -6 -977 -10 -2482 -10 l-2343 0 0 1654 c0 1058 4
1673 10 1707 33 181 206 368 456 496 239 122 533 185 1019 217 28 1 793 2
1700 1 1452 -2 1666 -4 1781 -18z"/>
<path d="M18280 24053 c-1210 -42 -2032 -369 -2412 -958 -129 -199 -214 -440
-250 -700 -20 -151 -19 -4334 1 -4415 46 -182 147 -268 372 -317 121 -26 527
-26 647 0 224 48 318 120 374 285 l23 67 5 2115 c5 1952 7 2119 22 2170 65
208 225 379 440 468 125 52 321 96 553 123 63 7 342 13 750 16 379 2 677 8
714 14 157 25 222 92 268 274 14 56 17 113 17 285 0 239 -10 305 -65 417 -36
74 -75 107 -161 136 -61 21 -77 22 -643 22 -319 1 -614 0 -655 -2z"/>
<path d="M23289 24055 c-3 -2 -63 -5 -134 -6 -230 -4 -490 -26 -763 -65 -1159
-165 -1845 -635 -2038 -1397 -59 -232 -57 -193 -59 -1647 -1 -734 2 -1387 6
-1450 29 -438 189 -797 482 -1077 451 -433 1189 -667 2272 -722 212 -11 3112
-11 3330 0 1186 59 1978 346 2403 873 81 100 116 155 177 281 88 180 142 379
164 600 13 132 14 2689 1 2833 -54 591 -331 1022 -851 1322 -450 260 -1120
414 -1954 449 -200 8 -3028 14 -3036 6z m2971 -1155 c632 -38 1022 -166 1266
-415 82 -84 138 -184 159 -282 12 -57 15 -273 15 -1329 0 -857 -3 -1279 -11
-1320 -48 -265 -347 -508 -761 -619 -170 -45 -375 -77 -628 -95 -187 -14
-2972 -13 -3172 1 -602 41 -968 167 -1218 418 -95 95 -141 176 -165 284 -11
51 -13 295 -12 1352 l2 1290 22 66 c59 171 222 334 453 449 199 100 545 174
930 199 185 12 2923 13 3120 1z"/>
<path d="M39300 17923 c-90 -7 -216 -35 -294 -65 -128 -50 -196 -132 -231
-281 -12 -51 -15 -184 -15 -779 l0 -718 -2382 0 c-1311 0 -2421 -3 -2468 -5
-403 -25 -564 -41 -810 -81 -437 -70 -842 -201 -1134 -368 -525 -299 -815
-757 -855 -1348 -4 -62 -7 -716 -6 -1453 1 -1218 3 -1350 19 -1450 80 -506
310 -867 731 -1147 118 -78 358 -195 518 -252 375 -135 829 -219 1382 -255
189 -13 3563 -13 3765 -1 1552 95 2410 583 2624 1490 53 225 51 84 51 3305 0
2816 -1 3004 -17 3068 -46 177 -131 258 -326 308 -130 33 -365 47 -552 32z
m-543 -4668 c-3 -1834 2 -1700 -58 -1816 -69 -137 -227 -275 -428 -374 -222
-110 -558 -180 -976 -204 -195 -11 -3082 -11 -3285 0 -633 34 -1035 165 -1291
421 -71 71 -124 156 -155 248 -18 53 -19 113 -19 1365 0 1375 -2 1321 43 1430
24 62 94 156 160 216 237 220 601 339 1162 379 222 16 135 15 2598 15 l2252 0
-3 -1680z"/>
<path d="M51456 17919 c-234 -26 -379 -99 -443 -223 -56 -110 -53 130 -53
-3897 0 -2614 3 -3733 11 -3774 40 -219 182 -321 494 -354 268 -28 558 2 711
75 133 63 196 168 212 355 4 46 7 1733 6 3749 0 3424 -1 3669 -17 3730 -48
182 -129 258 -331 310 -146 37 -399 50 -590 29z"/>
<path d="M13840 16083 c-47 -1 -166 -7 -265 -13 -1667 -98 -2550 -684 -2645
-1756 -7 -82 -10 -1061 -8 -3119 4 -3265 -1 -3031 56 -3141 46 -91 100 -134
219 -177 204 -74 642 -77 863 -6 158 51 222 112 274 262 20 61 21 77 24 820
l3 757 2362 1 c1299 0 2371 2 2382 4 11 1 94 6 185 9 91 4 253 16 360 26 1446
147 2220 693 2345 1653 13 101 15 314 15 1488 0 903 -4 1403 -11 1467 -106
964 -869 1526 -2280 1681 -389 43 -417 44 -2134 46 -913 1 -1698 0 -1745 -2z
m3295 -1153 c401 -26 707 -88 930 -189 152 -69 339 -217 417 -329 17 -24 42
-71 57 -105 l26 -62 3 -1324 c3 -1473 7 -1365 -65 -1504 -45 -84 -147 -188
-257 -261 -228 -151 -441 -215 -931 -278 -65 -8 -753 -12 -2522 -15 l-2433 -4
0 1654 c0 1059 4 1674 10 1708 15 83 74 192 143 266 255 274 662 409 1337 446
160 9 3144 6 3285 -3z"/>
<path d="M25854 16081 c-182 -29 -257 -105 -301 -303 -25 -110 -24 -426 1
-533 21 -93 54 -168 91 -208 36 -37 109 -73 179 -86 38 -7 311 -11 770 -12
840 -2 1028 -10 1331 -60 223 -36 361 -77 510 -149 227 -110 350 -253 371
-435 l7 -55 -2494 0 c-2554 0 -2614 -1 -2973 -26 -962 -68 -1663 -312 -2076
-724 -264 -263 -412 -575 -460 -970 -16 -133 -13 -992 5 -1121 138 -1040 1040
-1593 2735 -1678 218 -11 3737 -11 3950 0 965 50 1675 251 2125 604 369 289
570 667 615 1157 13 146 12 2722 -1 2853 -41 403 -186 722 -449 986 -176 178
-348 296 -600 410 -399 182 -887 287 -1565 340 -168 13 -1698 21 -1771 10z
m2956 -3695 c0 -468 -4 -774 -10 -807 -22 -118 -101 -240 -222 -344 -246 -211
-584 -319 -1143 -364 -61 -5 -943 -8 -1975 -7 -1658 2 -1880 4 -1997 19 -434
54 -678 129 -903 280 -99 66 -217 187 -257 262 -62 119 -63 128 -63 576 0 378
1 411 20 470 62 198 247 369 526 488 214 91 558 154 919 168 88 3 162 7 164 9
2 2 1115 4 2473 4 l2468 0 0 -754z"/>
<path d="M43910 16079 c-1075 -46 -1836 -279 -2297 -704 -273 -251 -436 -577
-494 -985 -14 -100 -21 -2674 -7 -2875 73 -1107 993 -1708 2748 -1794 263 -13
1825 -13 1895 0 217 40 287 177 289 564 1 206 -15 310 -65 412 -35 72 -72 104
-155 136 -59 22 -64 22 -999 29 -517 3 -958 9 -980 13 -22 3 -96 13 -165 21
-447 56 -746 178 -960 393 -95 96 -142 176 -165 284 -9 43 -13 156 -14 369
l-2 308 3573 3 c3347 3 3577 4 3642 20 155 39 233 95 282 202 53 114 54 142
54 1019 0 505 -4 844 -10 896 -84 679 -452 1139 -1122 1404 -366 144 -796 226
-1458 278 -176 13 -3294 20 -3590 7z m3330 -1149 c324 -20 586 -60 783 -121
334 -103 548 -288 613 -529 15 -56 17 -121 18 -487 l2 -423 -3059 0 -3058 0 3
423 c4 402 5 425 26 488 76 229 329 428 676 533 187 57 434 97 706 115 186 12
3093 13 3290 1z"/>
<path d="M22177 6001 c-121 -17 -194 -67 -216 -148 -7 -23 -11 -172 -11 -380
l0 -341 -187 -4 c-221 -4 -241 -10 -283 -93 -23 -46 -25 -61 -25 -185 0 -118
3 -141 22 -183 36 -77 67 -87 291 -87 l182 0 0 -1156 c0 -830 3 -1168 11
-1200 28 -111 114 -149 334 -149 155 0 219 15 277 63 67 57 63 -26 66 1269 l2
1172 608 3 607 3 32 23 c51 36 68 96 68 242 0 191 -27 248 -126 269 -32 7
-253 11 -619 11 l-569 0 -3 353 c-3 337 -4 354 -25 399 -36 79 -114 113 -279
121 -55 3 -125 2 -157 -2z"/>
<path d="M40358 5999 c-212 -27 -304 -129 -302 -334 2 -137 40 -218 127 -269
86 -51 245 -73 395 -56 234 26 326 121 326 335 0 202 -96 299 -322 325 -99 11
-129 11 -224 -1z"/>
<path d="M41867 6001 c-121 -17 -194 -67 -216 -148 -7 -23 -11 -172 -11 -380
l0 -341 -187 -4 c-221 -4 -241 -10 -283 -93 -23 -46 -25 -61 -25 -185 0 -118
3 -141 22 -183 36 -77 67 -87 291 -87 l182 0 0 -1156 c0 -830 3 -1168 11
-1200 28 -111 114 -149 334 -149 155 0 219 15 277 63 67 57 63 -26 66 1269 l2
1172 608 3 607 3 32 23 c51 36 68 96 68 237 0 191 -28 253 -126 274 -32 7
-253 11 -619 11 l-569 0 -3 353 c-3 337 -4 354 -25 399 -36 79 -114 113 -279
121 -55 3 -125 2 -157 -2z"/>
<path d="M31742 5969 c-440 -41 -724 -174 -876 -412 -86 -134 -106 -235 -106
-524 0 -238 9 -303 56 -396 69 -137 158 -217 428 -382 97 -59 176 -111 176
-114 0 -4 -53 -22 -117 -40 -314 -89 -548 -163 -600 -190 -138 -69 -240 -169
-301 -296 -62 -125 -81 -260 -77 -535 4 -255 37 -386 132 -525 155 -229 426
-364 877 -438 128 -21 161 -21 1399 -24 1117 -3 1283 -2 1385 12 149 20 288
55 399 100 48 19 92 35 97 35 6 0 47 -22 91 -48 132 -79 223 -110 357 -121
183 -14 341 4 414 50 67 41 96 127 74 218 -20 84 -68 126 -285 250 -125 71
-189 113 -187 122 2 8 15 57 30 109 l25 95 1 520 c1 473 -1 524 -17 566 -40
105 -113 134 -332 133 -131 0 -157 -3 -207 -23 -64 -25 -102 -64 -118 -119 -6
-23 -10 -208 -10 -484 0 -247 -3 -448 -6 -448 -3 0 -377 212 -831 471 l-825
472 138 44 c839 269 873 281 997 354 96 56 203 166 244 249 55 113 64 166 70
385 4 174 2 212 -15 297 -31 150 -77 236 -181 338 -154 152 -355 233 -711 287
-87 13 -225 16 -800 18 -382 2 -737 -1 -788 -6z m1524 -566 c159 -36 238 -85
269 -168 26 -67 18 -334 -12 -390 -26 -49 -65 -87 -118 -114 -35 -18 -1211
-371 -1236 -371 -15 0 -527 298 -597 347 -37 26 -76 65 -93 91 -29 45 -29 47
-29 197 0 179 13 236 68 297 59 65 161 103 342 127 36 5 346 8 690 7 590 -3
630 -4 716 -23z m-516 -2048 c377 -224 796 -474 932 -554 224 -133 244 -147
220 -154 -15 -4 -522 -8 -1127 -9 -964 0 -1115 2 -1225 16 -284 38 -482 152
-526 304 -13 42 -15 86 -12 191 5 165 23 217 100 286 58 52 68 56 460 180 166
53 341 110 388 125 47 15 90 27 95 25 6 -1 318 -186 695 -410z"/>
<path d="M38915 5973 c-242 -20 -462 -66 -612 -129 -279 -115 -441 -286 -515
-540 l-23 -79 0 -1505 c0 -1453 1 -1506 19 -1543 44 -88 205 -128 421 -105
130 14 203 60 227 143 9 30 13 336 14 1190 1 633 3 1153 3 1157 1 4 261 9 579
10 660 3 631 0 673 84 22 45 24 62 24 189 0 122 -3 146 -22 187 -40 88 1 83
-666 86 l-588 3 6 22 c27 92 98 171 191 214 118 54 207 65 604 72 418 7 415 7
453 89 19 41 22 65 22 187 0 122 -3 146 -22 187 -38 83 -38 83 -418 84 -181 0
-348 -1 -370 -3z"/>
<path d="M6590 5113 c-324 -25 -603 -120 -772 -262 -118 -99 -204 -239 -233
-376 -20 -94 -20 -376 0 -470 25 -118 86 -227 179 -320 127 -126 274 -202 497
-259 209 -52 291 -58 869 -62 1117 -8 1250 -11 1337 -28 165 -32 260 -84 295
-163 17 -40 19 -62 16 -192 -3 -141 -4 -149 -30 -188 -52 -79 -219 -134 -447
-149 -58 -3 -664 -7 -1346 -8 -1219 -1 -1241 -1 -1280 -21 -29 -15 -47 -33
-65 -70 -23 -46 -25 -61 -25 -185 0 -124 2 -139 25 -185 47 -94 -87 -86 1420
-82 1196 3 1336 5 1440 21 515 77 795 219 923 465 66 127 72 159 72 421 0 232
0 236 -28 315 -55 154 -147 270 -292 364 -154 101 -345 159 -665 202 -54 7
-399 14 -960 18 -973 8 -973 8 -1116 76 -80 39 -128 86 -143 142 -14 49 -14
197 0 246 12 45 71 108 128 137 23 11 78 30 123 42 78 20 114 22 613 27 359 5
538 10 555 18 78 35 104 110 98 287 -4 134 -19 182 -71 220 -28 21 -40 21
-550 22 -287 0 -542 -1 -567 -3z"/>
<path d="M11021 5109 c-657 -62 -1022 -276 -1143 -669 l-23 -75 -3 -1503 -2
-1502 21 -51 c40 -93 138 -125 356 -116 143 5 206 22 251 67 51 50 55 85 58
455 2 187 3 348 3 358 1 16 64 17 1181 17 1277 0 1333 2 1595 55 532 108 825
380 853 791 4 58 7 390 6 737 -2 677 -3 693 -55 832 -130 349 -514 553 -1138
605 -144 12 -1832 11 -1960 -1z m1887 -550 c282 -30 478 -126 553 -269 l24
-45 0 -640 0 -640 -23 -47 c-51 -103 -192 -195 -362 -237 -167 -41 -240 -43
-1405 -43 -616 0 -1129 1 -1140 1 -20 1 -20 8 -19 799 l1 797 22 50 c65 146
276 247 581 278 92 10 1679 6 1768 -4z"/>
<path d="M15760 5109 c-200 -18 -423 -60 -535 -100 -351 -126 -538 -304 -617
-586 -22 -76 -22 -94 -26 -768 -2 -479 0 -714 8 -770 66 -463 447 -720 1165
-785 149 -14 1716 -13 1865 1 712 64 1094 323 1160 784 8 56 10 291 8 770 -4
673 -4 692 -25 767 -107 379 -422 587 -1023 675 -100 14 -231 17 -1000 19
-487 1 -928 -2 -980 -7z m1772 -550 c220 -24 386 -87 484 -185 88 -89 85 -56
82 -785 -3 -718 2 -667 -87 -755 -97 -96 -237 -151 -455 -180 -101 -13 -243
-16 -871 -16 -523 0 -780 4 -850 12 -220 26 -376 86 -472 180 -94 92 -88 37
-91 769 l-2 644 22 46 c67 139 267 240 538 270 117 13 1581 13 1702 0z"/>
<path d="M20295 5109 c-235 -23 -460 -82 -622 -164 -218 -110 -352 -263 -420
-480 l-28 -90 0 -1080 c0 -1037 1 -1082 19 -1118 44 -88 205 -128 421 -105
130 14 203 60 227 143 9 29 13 299 14 1026 0 542 4 1003 8 1024 22 116 115
211 246 254 121 39 173 43 560 50 441 7 435 6 473 89 19 41 22 64 22 192 0
161 -12 203 -68 244 -27 20 -41 21 -395 22 -202 1 -407 -2 -457 -7z"/>
<path d="M25230 5113 c-80 -6 -253 -34 -330 -53 -305 -75 -516 -223 -621 -435
-55 -112 -69 -188 -69 -385 0 -199 14 -273 71 -390 33 -67 60 -102 123 -165
127 -126 274 -202 497 -259 209 -52 291 -58 869 -62 1117 -8 1250 -11 1337
-28 165 -32 260 -84 295 -163 17 -40 19 -62 16 -192 -3 -141 -4 -149 -30 -188
-52 -79 -219 -134 -447 -149 -58 -3 -664 -7 -1346 -8 -1219 -1 -1241 -1 -1280
-21 -29 -15 -47 -33 -65 -70 -23 -46 -25 -61 -25 -185 0 -124 2 -139 25 -185
47 -94 -87 -86 1420 -82 1196 3 1336 5 1440 21 515 77 795 219 923 465 66 127
72 159 72 421 0 232 0 236 -28 315 -55 154 -147 270 -292 364 -154 101 -345
159 -665 202 -54 7 -399 14 -960 18 -973 8 -973 8 -1116 76 -80 39 -128 86
-143 142 -14 49 -14 197 0 246 12 45 71 108 128 137 23 11 78 30 123 42 78 20
114 22 613 27 359 5 538 10 555 18 78 35 104 110 98 287 -4 134 -19 182 -71
220 -28 21 -40 21 -550 22 -287 0 -542 -1 -567 -3z"/>
<path d="M45111 5109 c-252 -24 -466 -72 -626 -138 -271 -111 -447 -293 -517
-536 l-23 -80 0 -1070 c0 -1027 1 -1072 19 -1108 44 -88 205 -128 421 -105
130 14 203 60 227 143 9 29 12 303 14 1035 l1 995 26 52 c51 101 180 185 350
228 170 43 269 47 1107 43 679 -4 797 -6 875 -21 109 -20 222 -57 284 -94 63
-37 139 -109 164 -158 l22 -40 5 -1020 5 -1020 24 -43 c45 -77 170 -114 355
-105 162 8 237 40 276 118 l25 50 0 1040 0 1040 -23 90 c-86 339 -361 560
-814 655 -256 53 -260 53 -1218 56 -492 1 -933 -2 -979 -7z"/>
<path d="M49760 5109 c-249 -22 -436 -62 -608 -130 -300 -118 -470 -292 -544
-556 -22 -76 -22 -94 -26 -768 -2 -479 0 -714 8 -770 66 -463 447 -720 1165
-785 157 -14 1050 -13 1078 1 72 37 99 108 99 263 1 155 -23 219 -90 252 -34
17 -77 18 -472 21 -239 1 -480 7 -534 13 -217 25 -377 85 -473 180 -82 80 -88
99 -91 292 l-3 168 1703 2 c1585 3 1707 4 1754 20 57 20 85 46 111 103 16 36
18 80 21 440 3 447 -4 534 -58 673 -41 107 -97 188 -189 274 -183 172 -465
267 -906 307 -126 11 -1817 11 -1945 0z m1957 -562 c188 -35 305 -88 378 -169
67 -74 75 -114 75 -350 l0 -198 -1450 0 -1450 0 0 207 c0 193 2 210 22 252 67
139 266 239 538 270 41 5 464 8 940 6 734 -2 877 -4 947 -18z"/>
<path d="M54220 5113 c-80 -6 -253 -34 -330 -53 -305 -75 -516 -223 -621 -435
-55 -112 -69 -188 -69 -385 0 -199 14 -273 71 -390 33 -67 60 -102 123 -165
127 -126 274 -202 497 -259 209 -52 291 -58 869 -62 1117 -8 1250 -11 1337
-28 165 -32 260 -84 295 -163 17 -40 19 -62 16 -192 -3 -141 -4 -149 -30 -188
-52 -79 -219 -134 -447 -149 -58 -3 -664 -7 -1346 -8 -1219 -1 -1241 -1 -1280
-21 -29 -15 -47 -33 -65 -70 -23 -46 -25 -61 -25 -185 0 -124 2 -139 25 -185
47 -94 -87 -86 1420 -82 1196 3 1336 5 1440 21 515 77 795 219 923 465 66 127
72 159 72 421 0 232 0 236 -28 315 -55 154 -147 270 -292 364 -154 101 -345
159 -665 202 -54 7 -399 14 -960 18 -973 8 -973 8 -1116 76 -80 39 -128 86
-143 142 -14 49 -14 197 0 246 12 45 71 108 128 137 23 11 78 30 123 42 78 20
114 22 613 27 359 5 538 10 555 18 78 35 104 110 98 287 -4 134 -19 182 -71
220 -28 21 -40 21 -550 22 -287 0 -542 -1 -567 -3z"/>
<path d="M58450 5113 c-80 -6 -253 -34 -330 -53 -305 -75 -516 -223 -621 -435
-55 -112 -69 -188 -69 -385 0 -199 14 -273 71 -390 33 -67 60 -102 123 -165
127 -126 274 -202 497 -259 209 -52 291 -58 869 -62 1117 -8 1250 -11 1337
-28 165 -32 260 -84 295 -163 17 -40 19 -62 16 -192 -3 -141 -4 -149 -30 -188
-52 -79 -219 -134 -447 -149 -58 -3 -664 -7 -1346 -8 -1219 -1 -1241 -1 -1280
-21 -29 -15 -47 -33 -65 -70 -23 -46 -25 -61 -25 -185 0 -124 2 -139 25 -185
47 -94 -87 -86 1420 -82 1196 3 1336 5 1440 21 515 77 795 219 923 465 66 127
72 159 72 421 0 232 0 236 -28 315 -55 154 -147 270 -292 364 -154 101 -345
159 -665 202 -54 7 -399 14 -960 18 -973 8 -973 8 -1116 76 -80 39 -128 86
-143 142 -14 49 -14 197 0 246 12 45 71 108 128 137 23 11 78 30 123 42 78 20
114 22 613 27 359 5 538 10 555 18 78 35 104 110 98 287 -4 134 -19 182 -71
220 -28 21 -40 21 -550 22 -287 0 -542 -1 -567 -3z"/>
<path d="M40320 5097 c-99 -23 -142 -58 -168 -136 -17 -50 -17 -2687 0 -2744
32 -105 117 -142 333 -142 197 0 280 32 323 124 16 33 17 132 17 1391 0 1304
-1 1356 -19 1390 -50 94 -115 121 -301 126 -83 2 -150 -1 -185 -9z"/>
</g>
</svg>
