<?xml version="1.0" standalone="no"?>
<!DOCTYPE svg PUBLIC "-//W3C//DTD SVG 20010904//EN"
 "http://www.w3.org/TR/2001/REC-SVG-20010904/DTD/svg10.dtd">
<svg version="1.0" xmlns="http://www.w3.org/2000/svg"
 width="4808.000000pt" height="4184.000000pt" viewBox="0 0 4808.000000 4184.000000"
 preserveAspectRatio="xMidYMid meet">
<metadata>
Created by potrace 1.16, written by Peter Selinger 2001-2019
</metadata>
<g transform="translate(0.000000,4184.000000) scale(0.100000,-0.100000)"
fill="#000000" stroke="none">
<path d="M22040 41377 c-3 -2 -98 -7 -213 -11 -1226 -37 -2560 -282 -3637
-668 -1310 -469 -2740 -1288 -3886 -2224 -506 -414 -1067 -946 -1488 -1414
-1708 -1896 -2840 -4246 -3266 -6780 -47 -276 -48 -317 -16 -385 47 -99 135
-154 247 -155 71 0 105 14 232 93 171 105 424 150 642 112 172 -30 319 -104
447 -224 331 -310 384 -805 128 -1181 -21 -30 -51 -67 -66 -82 -16 -14 -558
-396 -1204 -849 -646 -452 -1476 -1034 -1845 -1292 -368 -258 -694 -490 -724
-515 -258 -220 -418 -627 -382 -971 14 -133 38 -220 94 -336 260 -537 932
-754 1461 -472 44 24 299 196 566 383 601 422 2304 1615 3305 2316 413 288
1166 814 1675 1168 509 354 1087 757 1286 895 430 300 455 316 562 355 475
173 990 -60 1172 -531 104 -271 66 -595 -98 -835 -99 -146 -108 -153 -802
-634 -272 -189 -709 -492 -970 -673 -532 -370 -1185 -824 -1897 -1319 -263
-182 -640 -444 -838 -581 -198 -138 -409 -285 -470 -327 -60 -42 -274 -191
-475 -330 -201 -139 -414 -288 -475 -330 -60 -42 -274 -191 -475 -330 -201
-139 -414 -288 -475 -330 -60 -42 -274 -191 -475 -330 -201 -139 -414 -288
-475 -330 -60 -42 -274 -191 -475 -330 -201 -139 -414 -288 -475 -330 -60 -42
-274 -191 -475 -330 -201 -139 -414 -288 -475 -330 -60 -42 -274 -191 -475
-330 -201 -139 -414 -288 -475 -330 -60 -42 -274 -191 -475 -330 -201 -139
-414 -288 -475 -330 -60 -42 -273 -190 -472 -328 -200 -139 -526 -365 -725
-504 -200 -138 -412 -286 -473 -328 -60 -42 -252 -175 -425 -295 -173 -120
-340 -238 -370 -261 -468 -357 -558 -1028 -200 -1502 141 -188 350 -326 588
-389 86 -23 116 -26 262 -26 146 0 176 3 262 26 111 29 195 64 286 118 34 21
567 388 1185 817 617 428 1727 1199 2467 1712 5812 4033 6533 4532 6616 4574
39 19 111 47 160 62 79 24 105 27 239 28 116 0 166 -4 220 -18 335 -90 580
-335 671 -672 26 -96 26 -330 0 -428 -42 -160 -120 -300 -230 -414 -67 -70
-106 -99 -786 -572 -256 -177 -514 -358 -575 -400 -234 -163 -639 -446 -1350
-940 -115 -80 -419 -292 -675 -470 -500 -348 -503 -350 -1085 -755 -429 -298
-504 -362 -601 -510 -67 -103 -113 -208 -145 -331 -34 -128 -34 -359 0 -488
109 -417 429 -713 846 -781 172 -28 324 -15 495 41 58 19 132 50 165 69 34 18
241 159 460 312 572 399 3909 2728 5015 3500 514 359 969 670 1010 692 138 71
262 101 419 101 419 -1 782 -287 883 -697 27 -112 30 -304 5 -405 -43 -175
-129 -330 -247 -448 -36 -36 -123 -106 -195 -156 -71 -50 -341 -239 -600 -419
-258 -181 -654 -457 -880 -615 -425 -297 -880 -615 -1512 -1057 -365 -255
-760 -531 -1653 -1155 -256 -178 -631 -441 -835 -583 -203 -142 -577 -403
-830 -580 -253 -177 -662 -463 -910 -636 -312 -218 -476 -338 -533 -394 -138
-131 -235 -297 -290 -492 -24 -90 -27 -113 -27 -273 0 -160 3 -183 28 -275
170 -614 808 -942 1410 -725 121 44 174 78 757 486 548 384 2283 1597 3735
2613 484 338 1004 702 1155 808 285 200 380 256 490 291 198 63 423 55 616
-23 482 -194 704 -754 484 -1222 -49 -105 -109 -190 -192 -269 -34 -34 -236
-183 -448 -331 -1521 -1063 -1468 -1024 -1581 -1172 -112 -148 -203 -378 -230
-586 -46 -353 110 -714 405 -937 283 -214 667 -275 1002 -157 158 55 -30 -73
2431 1651 l721 506 5580 -2258 c3068 -1242 5641 -2284 5717 -2317 l138 -58
247 -355 c616 -888 758 -1092 830 -1195 43 -60 278 -399 524 -752 245 -354
645 -930 889 -1280 244 -351 479 -690 523 -753 44 -63 266 -383 494 -710 227
-327 650 -935 938 -1350 750 -1078 857 -1233 936 -1345 220 -315 528 -498 902
-536 230 -24 508 35 704 148 25 14 295 200 600 411 492 342 566 397 656 486
112 112 162 181 227 313 83 167 116 297 124 493 8 224 -30 404 -125 590 -32
64 -956 1400 -2836 4105 l-2788 4010 -13 300 c-8 165 -17 354 -20 420 -8 169
-44 992 -50 1160 -3 77 -7 165 -10 195 -9 118 -20 465 -20 655 0 254 15 1172
20 1205 2 14 6 241 10 505 3 264 8 500 10 525 2 25 6 248 10 495 3 248 8 484
10 525 2 41 7 269 10 505 3 237 8 468 10 515 2 47 7 279 10 515 3 237 8 464
10 505 2 41 7 273 10 515 3 242 8 474 10 515 2 41 7 269 10 505 3 237 8 473
10 525 2 52 7 280 10 505 3 226 7 457 10 515 2 58 7 290 10 515 3 226 8 453
10 505 2 52 7 284 10 515 3 231 7 463 10 515 2 52 7 280 10 505 3 226 7 462
10 525 2 63 7 286 10 495 6 431 12 623 26 810 25 347 33 1139 16 1540 -28 666
-129 1462 -271 2137 -540 2553 -1786 4855 -3656 6752 -572 580 -1044 971
-1715 1421 -1914 1283 -4393 2116 -6935 2330 -381 32 -699 46 -1160 51 -261 3
-477 4 -480 1z m15 -3597 c349 -93 607 -375 676 -738 17 -88 6 -299 -19 -382
-52 -172 -123 -294 -238 -408 -286 -282 -699 -349 -1055 -172 -326 161 -528
510 -506 869 28 440 355 789 802 855 69 10 262 -4 340 -24z m6009 -579 c322
-88 569 -339 657 -666 17 -64 22 -108 22 -220 0 -164 -19 -248 -83 -384 -144
-299 -424 -493 -762 -526 -93 -9 -246 11 -353 46 -237 79 -421 241 -535 474
-64 129 -91 242 -91 383 -2 264 90 483 278 663 142 137 301 216 513 253 64 11
278 -3 354 -23z m-9840 -2071 c347 -88 606 -360 678 -710 24 -114 20 -295 -8
-400 -69 -261 -247 -480 -489 -602 -306 -155 -696 -111 -968 109 -370 299
-450 828 -186 1223 138 207 383 362 629 399 89 13 253 4 344 -19z m6013 -545
c161 -32 314 -111 437 -226 127 -118 210 -253 263 -426 24 -79 27 -103 27
-243 0 -140 -3 -164 -28 -244 -81 -268 -242 -456 -491 -576 -147 -71 -211 -85
-390 -85 -163 0 -226 12 -358 66 -144 60 -306 191 -397 324 -43 62 -113 214
-136 295 -15 52 -19 98 -18 225 0 145 3 168 27 248 48 156 116 270 230 386
220 224 524 317 834 256z m6088 -644 c97 -26 227 -87 309 -145 177 -127 317
-342 363 -561 18 -84 20 -256 4 -342 -66 -353 -336 -638 -688 -725 -123 -30
-303 -30 -427 0 -97 24 -228 82 -301 132 -118 81 -242 225 -309 357 -74 147
-107 338 -87 500 25 203 103 371 240 515 155 164 338 260 556 292 69 10 262
-3 340 -23z m-16097 -1557 c187 -38 326 -115 467 -258 186 -188 268 -389 267
-651 -2 -311 -169 -603 -435 -763 -363 -219 -822 -166 -1118 128 -250 249
-337 593 -232 924 99 316 364 553 693 621 91 19 265 18 358 -1z m6190 -450
c338 -69 612 -331 703 -674 27 -101 32 -307 10 -405 -76 -340 -317 -598 -657
-701 -78 -24 -106 -27 -234 -28 -165 -1 -254 18 -388 79 -336 156 -554 522
-528 887 29 421 334 766 747 847 75 15 264 12 347 -5z m6118 -614 c412 -106
694 -463 695 -880 1 -361 -180 -658 -501 -824 -456 -236 -1019 -41 -1235 427
-65 140 -80 213 -80 387 0 181 16 254 90 405 184 378 629 588 1031 485z m5969
-569 c312 -64 567 -284 676 -581 187 -513 -110 -1065 -646 -1201 -129 -32
-302 -31 -437 4 -192 50 -371 165 -489 315 -66 85 -149 244 -174 337 -22 80
-31 306 -16 387 38 200 125 362 268 499 142 137 281 206 508 253 56 11 228 4
310 -13z m-9752 -2095 c492 -146 773 -666 621 -1149 -50 -157 -123 -276 -240
-388 -87 -83 -142 -120 -257 -174 -143 -67 -207 -80 -382 -79 -133 1 -160 4
-239 28 -95 29 -202 78 -270 125 -167 116 -299 300 -362 506 -25 82 -28 104
-28 250 0 145 3 168 27 248 105 341 362 578 707 652 105 23 313 13 423 -19z
m5914 -517 c102 -14 239 -60 333 -112 98 -55 268 -222 326 -322 94 -162 128
-287 128 -475 0 -153 -21 -251 -79 -376 -247 -535 -922 -705 -1385 -349 -159
122 -277 303 -331 506 -30 109 -32 317 -6 423 70 280 254 507 509 625 172 81
325 105 505 80z m-9896 -2233 c155 -39 282 -110 403 -225 518 -496 293 -1355
-404 -1543 -118 -31 -337 -31 -453 0 -299 82 -527 291 -637 586 -65 172 -67
409 -5 591 71 209 231 399 428 509 76 43 219 92 307 105 97 15 251 5 361 -23z
m6184 -445 c249 -66 452 -226 575 -454 193 -357 129 -792 -158 -1074 -276
-273 -683 -345 -1029 -183 -211 99 -381 278 -466 492 -52 129 -61 183 -61 338
1 171 19 252 87 395 127 262 380 452 674 505 82 15 288 5 378 -19z m5823 -287
c167 -34 310 -107 430 -219 196 -183 289 -380 299 -641 6 -151 -9 -248 -58
-373 -171 -431 -656 -674 -1094 -546 -221 64 -397 194 -524 389 -95 146 -142
308 -142 491 0 243 84 455 249 627 129 135 305 235 477 272 94 20 267 20 363
0z m-9788 -2464 c314 -80 551 -309 655 -630 37 -114 46 -305 20 -431 -70 -348
-335 -624 -682 -711 -112 -28 -312 -30 -417 -5 -164 41 -298 113 -418 225
-130 123 -212 256 -264 429 -24 77 -27 106 -28 233 0 122 3 159 23 230 94 349
374 607 730 675 103 20 271 13 381 -15z m6008 -200 c313 -76 571 -325 662
-640 27 -94 38 -310 21 -402 -64 -339 -293 -605 -614 -714 -272 -93 -594 -44
-820 125 -322 240 -455 645 -335 1021 123 387 499 653 898 635 58 -3 142 -14
188 -25z m-4001 -2745 c331 -70 588 -297 692 -610 39 -120 55 -230 47 -335
-30 -396 -291 -722 -668 -831 -92 -26 -308 -37 -400 -20 -338 64 -606 295
-716 616 -46 134 -57 325 -27 470 73 354 358 637 715 710 88 18 273 18 357 0z
m9773 -1070 c102 -35 185 -124 215 -230 10 -35 30 -334 64 -985 28 -514 53
-975 56 -1025 3 -49 14 -259 25 -465 11 -206 22 -415 25 -465 34 -560 55
-1044 50 -1115 -17 -210 -67 -390 -161 -569 -169 -324 -469 -580 -817 -696
-176 -58 -251 -70 -452 -70 -151 0 -196 4 -281 23 -175 39 -46 -14 -1561 641
-447 193 -1178 508 -1623 701 -446 192 -829 359 -851 370 -58 30 -117 94 -148
159 -22 47 -26 70 -26 146 0 78 4 97 28 147 43 88 116 148 234 193 1130 433
2121 960 3063 1629 580 412 1105 852 1650 1382 191 187 240 224 317 244 48 12
135 5 193 -15z"/>
</g>
</svg>
